<svg width="66" height="76" viewBox="0 0 66 76" fill="none" xmlns="http://www.w3.org/2000/svg">
<path d="M58.6505 75.6791C61.6915 76.4373 64.7988 74.5881 65.2761 71.4906C66.4735 63.7202 66.1859 55.7751 64.4096 48.081C62.2067 38.5394 57.7769 29.6545 51.4823 22.1529C45.1877 14.6513 37.2071 8.74593 28.1929 4.91964C20.9241 1.83422 13.1497 0.171336 5.28946 0.00122174C2.15605 -0.066593 -0.20464 2.6724 0.0139868 5.7989C0.232613 8.9254 2.94993 11.2494 6.08129 11.3814C12.1498 11.6371 18.1389 12.9819 23.7582 15.3671C31.1237 18.4936 37.6446 23.3188 42.7879 29.4484C47.9312 35.5779 51.5508 42.8377 53.3508 50.6341C54.724 56.5823 55.0083 62.7139 54.2064 68.7346C53.7926 71.8413 55.6094 74.9209 58.6505 75.6791Z" fill="#92DC49"/>
</svg>
